# xmcd
# 
# Track frame offsets:
#     150
#     56915
#     117221
#     168164
#     201641
#     274922
# 
# Disc length: 4648
# 
# Revision: 1
# Processed by: cddbd v1.5.2PL0 Copyright (c) Steve Scherf et al.
# Submitted via: BonkEnc v1.0.8
# 
DISCID=5a122606
DTITLE=Chris McGregor Brotherhood Of Breath - Bremen To Bridgewater
DYEAR=1975
DGENRE=Big Band
TTITLE0=Sonia
TTITLE1=Now
TTITLE2=Yes, Please
TTITLE3=Restless
TTITLE4=Kwahalo
TTITLE5=Untitled Original
EXTD=YEAR: 2004
EXTT0=
EXTT1=
EXTT2=
EXTT3=
EXTT4=
EXTT5=
PLAYORDER=
